<svg xmlns="http://www.w3.org/2000/svg" viewBox="0 0 64 64">
  <defs>
    <linearGradient id="bg" x1="0%" y1="0%" x2="100%" y2="100%">
      <stop offset="0%" stop-color="#0f5132" />
      <stop offset="100%" stop-color="#2f9e44" />
    </linearGradient>
  </defs>
  <rect width="64" height="64" rx="18" fill="url(#bg)" />
  <circle cx="32" cy="32" r="18" fill="none" stroke="#f8f5eb" stroke-width="3.5" />
  <path
    d="M14 32h36M32 14c5 5.5 7.5 11.5 7.5 18S37 44.5 32 50c-5-5.5-7.5-11.5-7.5-18S27 19.5 32 14Z"
    fill="none"
    stroke="#f8f5eb"
    stroke-linecap="round"
    stroke-linejoin="round"
    stroke-width="3.5"
  />
  <path
    d="M22.5 23.5c3.5 2 7 3 9.5 3 2.5 0 6-1 9.5-3M22.5 40.5c3.5-2 7-3 9.5-3 2.5 0 6 1 9.5 3"
    fill="none"
    stroke="#d7e7bf"
    stroke-linecap="round"
    stroke-linejoin="round"
    stroke-width="2.5"
  />
</svg>
